<?xml version="1.0" encoding="utf-8"?>
<!-- Generator: Adobe Illustrator 24.2.3, SVG Export Plug-In . SVG Version: 6.00 Build 0)  -->
<svg version="1.1" id="Layer_1" xmlns="http://www.w3.org/2000/svg" xmlns:xlink="http://www.w3.org/1999/xlink" x="0px" y="0px"
	 viewBox="0 0 165.6 57.1" style="enable-background:new 0 0 165.6 57.1;" xml:space="preserve">
<style type="text/css">
	.st0{fill:#FFFFFF;stroke:#000000;stroke-width:3;stroke-miterlimit:10;}
	.st1{fill:#DCDCDC;}
	.st2{fill:#EDEDEC;}
	.st3{fill:#ED1C24;}
	.st4{font-family:'Montserrat-SemiBold';}
	.st5{font-size:21.2553px;}
</style>
<g>
	<text transform="matrix(1 0 0 1 23.0112 34.7675)" class="st3 st4 st5">ABOUT ME</text>
	<g>
		<path class="st3" d="M157.63,46.54c0.31,0.04,0.7,0.02,1.03,0.09c0.94-1.61,1.49-3.47,1.49-5.47V15.94
			c0-5.99-4.87-10.86-10.86-10.86h-11.17c-0.16,0.25-0.41,0.5-0.6,0.5c-0.37-0.01-0.48-0.24-0.5-0.5h-9.7
			c-0.11,0.69-0.28,1.2-0.96,1.37c-0.4,0.1-0.7-0.34-0.7-0.74c0-0.26,0.05-0.47,0.14-0.63h-8.35c0.14,0.21,0.29,0.44,0.46,0.65
			c-1.22,0.3-2.14,0.42-2.62-0.65H42.05c-0.48,0.94-0.53,1.88-0.65,2.8c0.32,0.02,0.77-0.19,0.9,0.2h48.21
			c0.09-0.38,0.3-0.69,0.76-0.94c0.19,0.35,0.24,0.65,0.19,0.94h57.82c4.33,0,7.86,3.53,7.86,7.86v5.58
			c0.13,0.07,0.25,0.21,0.37,0.46c0.38,0.81,0.13,1.28-0.37,1.66v0.69c1.22,0.31,2.1,0.64,1.91,2.05c-0.09,0.62-0.61,1.49-1.25,1.27
			c-0.31-0.11-0.51-0.27-0.65-0.46v13.97c0,1.22-0.29,2.36-0.78,3.39c0.22,0.23,0.34,0.61,0.26,1.27
			C156.58,46.21,157.07,46.47,157.63,46.54z M94.1,7.17c-0.05,0.16-0.35,0.24-0.54,0.35c-0.09-0.24-0.28-0.49-0.25-0.71
			c0.02-0.16,0.33-0.28,0.63-0.5C94.03,6.71,94.17,6.97,94.1,7.17z"/>
		<path class="st3" d="M39.39,7.83c-1.64-1.22-2.05-1.9-1.16-2.75h-1.44c-0.3,0.24-0.72,0.19-1.19,0h-1.05
			c-0.01,0.05-0.02,0.1-0.04,0.15c-0.1,0.17-0.21,0.33-0.31,0.5c-0.54-0.16-1.59,0.41-1.51-0.59c0-0.02,0.01-0.04,0.01-0.06H16.32
			c-0.58,0-1.15,0.06-1.7,0.15c-0.55,0.84-1.57,0.83-2.51,1c0.09-0.12,0.17-0.26,0.25-0.39c-4.03,1.59-6.89,5.51-6.89,10.1v23.14
			c0.36-0.46,0.72-0.91,1.23-0.58c0.75-0.27,0.72-1.87,1.77-1.64v-1.56c-0.19-0.34-0.26-0.67,0-0.99v-3.77
			c-0.01,0-0.02,0.01-0.04,0.01c-0.4-0.2-0.51-0.55-0.37-0.92c0.11-0.29,0.21-0.61,0.4-0.84v-7.56c-0.23,0.26-0.63,0.41-0.87,0.65
			c-0.38,0.38-0.86,0.75-1.66,0.43c-0.21-0.84,0.54-0.98,0.81-1.43c0.31-0.51,0.3-1.42,1.21-1.27c0.18,0.03,0.37,0.28,0.5,0.54
			v-4.21c0-3.45,2.24-6.38,5.33-7.43c-0.01-0.01-0.01-0.02-0.02-0.03c-0.03-0.04,0.27-0.35,0.41-0.53c0.12,0.11,0.25,0.22,0.38,0.33
			c0.57-0.13,1.15-0.2,1.76-0.2h13.54c-0.27-0.3-0.31-0.74-0.31-1.17c0-0.4,0.32-0.44,0.58-0.37c0.72,0.2,0.59,0.82,0.71,1.4
			c-0.07,0.04-0.13,0.09-0.2,0.14h9C39.56,8,39.48,7.9,39.39,7.83z"/>
		<path class="st3" d="M67.47,52.02c-0.06-0.14-0.09-0.31-0.03-0.55c0.13-0.56,0.51-0.75,1.01-0.5c0.5,0.26,1.29,0.24,1.3,1.04h3.58
			c0.08-0.05,0.18-0.09,0.28-0.14c1.15-0.5-1.28-0.93-0.47-1.91c1.32-0.03,2.24,0.71,2.75,1.86c0.03,0.06,0.05,0.13,0.08,0.19h25.4
			c0.06-0.49,0.42-0.95,0.94-0.8c0.46,0.13,0.37,0.49,0.31,0.8h46.65c2.97,0,5.67-1.2,7.63-3.15c-0.57-0.07-1.05-0.26-1.11-1.01
			c-0.05-0.64-0.25-1.16-0.51-1.66c-1.44,1.72-3.6,2.81-6.01,2.81h-12.94c-0.08,0.22-0.21,0.45-0.32,0.65
			c-0.42,0.74-1.38,0.94-1.86,0.32c-0.33-0.43,0.83-0.42,0.98-0.96H71.82c0.07,0.11,0.02,0.57-0.12,0.7
			c-0.68,0.61-1.13-0.13-2.48-0.2c0.41-0.21,0.74-0.37,1.04-0.49H16.32c-4.33,0-7.86-3.53-7.86-7.86v-0.67
			c-0.52,0.57-1.15,1.1-1.84,1.58c-0.41,0.29-0.75,0.47-1.05,0.57c0.73,5.29,5.26,9.38,10.75,9.38H67.47z M141.22,50.24
			c0.49-0.8,0.98-1.65,2.04-0.65c0.55,0.52,0.94,1.05-0.02,1.56c-0.69,0.72-1.49,0.73-2.33,0.33
			C138.92,50.54,141.32,50.7,141.22,50.24z M50.09,49.83c0.14-0.4,0.44-0.56,0.85-0.55c0.49-0.05,0.38,0.38,0.31,0.54
			c-0.14,0.3-0.4,0.7-0.65,0.74C50.26,50.6,49.92,50.31,50.09,49.83z M10.07,48.55c-0.15,0.44-0.55,0.41-0.86,0.22
			c-0.39-0.24-0.72-0.64-0.58-1.12c0.13-0.46,0.56-0.23,0.87-0.18C9.94,47.7,10.25,48.03,10.07,48.55z"/>
	</g>
</g>
</svg>
