<?xml version="1.0" encoding="utf-8"?>
<!-- Generator: Adobe Illustrator 24.2.3, SVG Export Plug-In . SVG Version: 6.00 Build 0)  -->
<svg version="1.1" id="Layer_1" xmlns="http://www.w3.org/2000/svg" xmlns:xlink="http://www.w3.org/1999/xlink" x="0px" y="0px"
	 viewBox="0 0 612 792" style="enable-background:new 0 0 612 792;" xml:space="preserve">
<style type="text/css">
	.st0{fill:#2B2B2B;}
	.st1{fill:#D3AB34;}
	.st2{font-family:'GillSans';}
	.st3{font-size:11px;}
	.st4{fill:#FFFFFF;}
	.st5{font-family:'GillSans-Light';}
	.st6{font-size:9px;}
	.st7{fill:#D1D3D4;}
	.st8{font-family:'GillSans-Italic';}
	.st9{font-size:10px;}
	.st10{fill:none;}
	.st11{font-family:'GillSans-SemiBold';}
	.st12{font-size:13.3424px;}
	.st13{fill:#9E842A;}
	.st14{font-size:9.4705px;}
	.st15{font-size:20px;}
	.st16{letter-spacing:2;}
	.st17{opacity:0.8;fill:#FFFFFF;}
	.st18{font-size:7.3748px;}
	.st19{font-size:8.1942px;}
	.st20{opacity:0.8;}
	.st21{fill-rule:evenodd;clip-rule:evenodd;fill:#D3AB34;}
	.st22{letter-spacing:1;}
	.st23{fill-rule:evenodd;clip-rule:evenodd;fill:none;}
</style>
<rect class="st0" width="612" height="792"/>
<text transform="matrix(1 0 0 1 166.8645 135.9629)"><tspan x="0" y="0" class="st1 st2 st3">TECHNICAL</tspan><tspan x="0" y="12" class="st1 st2 st3">SKILLS</tspan></text>
<text transform="matrix(1 0 0 1 274.0922 160.189)" class="st4 st5 st6">MAC OS, Windows and Wacom Cintiq platforms.</text>
<text transform="matrix(1 0 0 1 274.0922 172.2422)"><tspan x="0" y="0" class="st7 st5 st6">Excellent in Illustrator, Photoshop, InDesign &amp; Sketchbook Pro. </tspan><tspan x="0" y="12" class="st7 st5 st6">Solidworks, KeyShot.</tspan></text>
<text transform="matrix(1 0 0 1 166.8645 172.1812)" class="st7 st2 st6">Application Proficiency:</text>
<text transform="matrix(1 0 0 1 166.8645 160.1616)" class="st7 st2 st6">Operating Platforms</text>
<text transform="matrix(1 0 0 1 166.8645 200.6678)" class="st1 st2 st3">EDUCATION</text>
<text transform="matrix(1 0 0 1 273.6152 226.6633)" class="st7 st5 st6">-Earned BS of Industrial Design degree December 2013</text>
<text transform="matrix(1 0 0 1 273.6152 214.9967)" class="st4 st8 st6">Denver Metropolitan State University</text>
<text transform="matrix(1 0 0 1 166.8645 214.9709)" class="st7 st2 st6">Bachelor of Science</text>
<text transform="matrix(1 0 0 1 166.8645 226.6227)" class="st7 st5 st9">Industrial Design</text>
<text transform="matrix(1 0 0 1 273.6152 715.0716)"><tspan x="0" y="0" class="st7 st5 st6">Fly Fishing, Fly Tying, Mountain biking, Hiking, Camping, Cycling,</tspan><tspan x="0" y="12" class="st7 st5 st6">Photography, Videography, Trail Running.</tspan></text>
<text transform="matrix(1 0 0 1 273.6152 744.5863)"><tspan x="0" y="0" class="st7 st5 st6">ABL Outdoor Apparel Company | Arbor Anglers | Amped | Mind Tweak </tspan><tspan x="0" y="12" class="st7 st5 st6">Ted Davis Productions | Artisan Obscura | Keara Jean Products</tspan></text>
<g>
	<text transform="matrix(1 0 0 1 273.6152 703.4051)" class="st4 st8 st6">Hobbies</text>
</g>
<rect x="290.18" y="697.04" class="st10" width="12.05" height="12.04"/>
<text transform="matrix(1 0 0 1 166.8645 702.9334)" class="st1 st2 st3">INTERESTS</text>
<text transform="matrix(1 0 0 1 273.6152 637.959)"><tspan x="0" y="0" class="st7 st5 st6">-As part of a team, we designed and developed functional parts for ecommerce.</tspan><tspan x="0" y="12" class="st7 st5 st6">-Participated in team meetings for concept development and manufacturing.</tspan><tspan x="0" y="24" class="st7 st5 st6">-Assisted in the development of 3D / 2D models for production set up &amp; run time.</tspan><tspan x="0" y="36" class="st7 st5 st6">-Engaged each product / design from concept through development. </tspan><tspan x="0" y="48" class="st7 st5 st6">-Main duties included prototyping / designing for precise machining.</tspan></text>
<text transform="matrix(1 0 0 1 273.6152 626.2925)" class="st4 st8 st6">Industrial Designer | Product Development | Machinist</text>
<rect x="290.18" y="625.92" class="st10" width="12.05" height="12.04"/>
<rect x="290.72" y="600.83" class="st10" width="12.05" height="25.43"/>
<rect x="290.06" y="539.29" class="st10" width="12.05" height="25.43"/>
<text transform="matrix(1 0 0 1 166.8645 626.0166)" class="st7 st2 st6">Omerica Organic</text>
<text transform="matrix(1 0 0 1 166.8645 637.856)" class="st7 st5 st9">08’-13’</text>
<text transform="matrix(1 0 0 1 273.6152 570.7277)" class="st4 st8 st6">Industrial Designer</text>
<text transform="matrix(1 0 0 1 166.8645 570.7435)" class="st7 st2 st6">Monigle Associates</text>
<text transform="matrix(1 0 0 1 166.8645 582.562)" class="st7 st5 st9">14’-16’</text>
<text transform="matrix(1 0 0 1 273.6152 582.8109)"><tspan x="0" y="0" class="st7 st5 st6">-Active design &amp; development of environmental branding solutions.</tspan><tspan x="0" y="12" class="st7 st5 st6">-Manage multiple projects with overlapping timelines and deliverables.</tspan><tspan x="0" y="24" class="st7 st5 st6">-Define &amp; maintain asset base files to ensure reduced delivery conflicts.</tspan></text>
<rect x="290.18" y="564.78" class="st10" width="12.05" height="12.04"/>
<text transform="matrix(1 0 0 1 166.8645 252.8934)" class="st1 st2 st3">EXPERIENCE</text>
<text transform="matrix(1 0 0 1 273.6152 265.0658)" class="st4 st8 st6">Lead Designer | Product Developer</text>
<text transform="matrix(1 0 0 1 166.8645 265.0086)" class="st7 st2 st6">Mountainsmith</text>
<text transform="matrix(1 0 0 1 166.8645 276.9105)" class="st7 st5 st9">18’-20’</text>
<rect x="278.29" y="265.06" class="st10" width="11.69" height="11.69"/>
<text transform="matrix(1.05 0 0 1 15.3981 137.4214)" class="st1 st11 st12">CODY DURHAM</text>
<text transform="matrix(1.05 0 0 1 15.5893 148.0269)" class="st13 st5 st14">CODYDD@GMAIL.COM</text>
<text transform="matrix(1 0 0 0.94 272.2016 82.1147)" class="st1 st2 st15 st16">INDUSTRIAL DESIGN</text>
<text transform="matrix(0.9959 0 0 1 274.3926 94.4551)" class="st17 st2 st6">TECHNICAL SOFTGOODS DESIGN &amp; DEVELOPMENT</text>
<g>
	<g>
		<text transform="matrix(1 0 0 1 15.3994 680.6001)" class="st1 st2 st3">CONTACT</text>
		<g>
			<text transform="matrix(1 0 0 1 55.9058 726.627)" class="st7 st5 st18">303-250-1821</text>
			<g>
				<text transform="matrix(1 0 0 1 15.4072 691.8301)" class="st7 st5 st19">Address:</text>
				<text transform="matrix(1 0 0 1 15.4072 714.9033)" class="st7 st5 st19">Email:</text>
				<text transform="matrix(1 0 0 1 15.4072 726.7031)" class="st7 st5 st19">Phone:</text>
				<text transform="matrix(1 0 0 1 15.4072 738.5498)" class="st7 st5 st19">Work:</text>
			</g>
			<g>
				<text transform="matrix(1 0 0 1 55.9058 714.8994)" class="st7 st5 st18">Codydd@gmail.com</text>
				<text transform="matrix(1 0 0 1 55.314 691.8467)"><tspan x="0" y="0" class="st7 st5 st18">5995 West Hampden Ave</tspan><tspan x="0" y="9.83" class="st7 st5 st18">Denver CO, 80227</tspan></text>
				<text transform="matrix(1 0 0 1 55.9058 738.4756)" class="st7 st5 st18">Coroflot.com/Codydurham</text>
			</g>
		</g>
	</g>
	<g>
		<g class="st20">
			<path class="st21" d="M87.24,651.71c0.43,0.69,0.06,1.38-0.05,2.07c-0.04,0.24-0.24,0.24-0.44,0.27
				c-0.23,0.03-0.27-0.09-0.33-0.25c-0.28-0.71-0.16-1.39,0.28-2.06C86.88,651.73,87.06,651.72,87.24,651.71z"/>
			<path class="st21" d="M88.68,660.95c-0.45-0.34-0.26-0.7,0.25-0.68c1.12,0.05,0.71-0.73,1.16-1.02c-0.34-0.03-0.39,0.2-0.59,0.28
				c-0.37,0.15-0.74,0.15-1.1-0.02c-0.39-0.18-0.47-0.48-0.4-0.8c0.07-0.32,0.38-0.67,0.75-0.62c0.96,0.11,1.05-0.32,1.07-0.91
				c0.14,0.27,1.21-0.07,0.51,0.69c0.36-0.05,0.67-0.09,0.98-0.14c0.05-0.3-0.67-0.21-0.43-0.37c0.38-0.24,0.98-0.52,1.44-0.33
				c0.65,0.26,1.31,0.17,1.97,0.24c0.22,0.02,0.41,0.03,0.56,0.15c0.77,0.68,2.02,0.36,2.91,0.82c0.06,0.03,0.25-0.11,0.38-0.14
				c0.32-0.08,0.45-0.32,0.68-0.46c0.35-0.22,0.67-0.49,1.16-0.48c0.06,0,0.17,0.11,0.16,0.15c-0.12,0.39-0.53,0.55-0.93,0.72
				c-0.07,0.06-0.09,0.15-0.2,0.18c-0.23,0.14-0.77,0.16-0.18,0.53c0.96,0.6,1.43,1.42,1.26,2.45c-0.03,0.19-0.21,0.21-0.32,0.31
				c-0.25,0.23-0.14,0.45-0.02,0.67c0.1,0.19,0.22,0.04,0.34,0c0.24-0.08,0.67-0.03,0.41-0.43c-0.11-0.17,0.11-0.21,0.3-0.26
				c0.37-0.1,0.96-0.04,0.77-0.62c-0.05-0.15,0.19-0.17,0.33-0.15c0.83,0.12,0.72-0.31,0.65-0.69c-0.04-0.25-0.11-0.52-0.26-0.74
				c-0.57-0.86-0.62-1.85-0.99-2.76c-0.09-0.22-0.17-0.53,0.22-0.61c0.4-0.08,0.4,0.23,0.48,0.46c0.36,1.11,0.74,2.21,1.13,3.31
				c0.14,0.41,0.3,0.45,0.72,0.24c0.07-0.03,0.17-0.02,0.25-0.02c0.03,0.7,0.54,0.42,1.05,0.36c0.69-0.08,0.7-0.02,1.26-0.34
				c0.03,0.86,0.54,1.33,1.63,1.46c0.14,0.02,0.22,0.06,0.25,0.16c0.05,0.13-0.06,0.2-0.18,0.29c-0.13,0.09-0.5,0.11-0.3,0.34
				c0.13,0.16,0.4,0.17,0.65,0.11c0.42-0.09,0.81-0.31,1.51-0.25c-0.45,0.16-0.19,0.73-0.93,0.45c-0.28-0.1-0.79,0-0.89,0.49
				c-0.08,0.39-0.11,0.58,0.47,0.52c0.08-0.01,0.24,0.1,0.25,0.16c0.01,0.12-0.13,0.26-0.26,0.24c-0.76-0.12-0.58,0.44-0.79,0.7
				c-0.04,0.05,0.06,0.32-0.11,0.33c-0.69,0.02-0.58,0.53-0.85,0.8c-0.05,0.07-0.12,0.08-0.2,0.03c-0.8,0.09-0.3,0.52-0.35,0.8
				c-0.1,0.09-0.21,0.07-0.32,0.02c-0.26-0.13-0.41-0.75-0.84-0.1c-0.73-0.44-0.79,0.26-1.16,0.44c-0.49,0.24-0.29,0.56,0.02,0.67
				c1.64,0.59,1.62,1.69,1.54,2.9c-0.05,0.76-0.32,1.45-0.72,2.11c-0.28,0.47-0.82,0.77-1.4,1c-0.26,0.1-0.47,0.16-0.42,0.44
				c0.04,0.24,0.09,0.36,0.44,0.5c1.94,0.77,3.86,1.59,5.54,2.69c0.11,0.07,0.23,0.14,0.34,0.23c0.51,0.39,0.98,0.86,0.53,1.42
				c-0.46,0.57-1.15,0.38-1.84,0.18c-1.36-0.4-2.43-1.04-3.17-2.04c-0.22-0.29-0.59-0.53-0.95-0.72c-0.77-0.43-1.7-0.68-2.33-1.27
				c-0.09-0.08-0.33-0.06-0.5-0.08c-0.04,0-0.07,0-0.11,0c-0.2-0.02-0.34-0.1-0.44-0.24c-0.43-0.29-0.99-0.24-1.49-0.31
				c-0.31-0.04-0.72,0.06-0.46,0.46c0.12,0.18,0.19,0.39-0.09,0.49c-0.28,0.1-0.4-0.12-0.53-0.27c-0.13-0.15-0.25-0.31-0.59-0.37
				c-0.03,0.58-0.06,1.21-0.3,1.63c-0.4,0.71-0.25,1.77-1.58,2.08c-0.55,0.13-0.15,0.66-0.55,0.9c-0.14,0.09-0.07,0.35-0.36,0.35
				c-0.3-0.01-0.21-0.23-0.3-0.36c-0.28-0.43-0.26-0.9-0.17-1.41c-0.48,0.06-0.53,0.29-0.54,0.52c-0.01,0.18-0.01,0.35-0.32,0.33
				c-0.3-0.03-0.27-0.23-0.25-0.38c0.04-0.31,0.04-0.63,0.17-0.91c0.18-0.4-0.1-0.53-0.47-0.59c-0.41-0.06-0.83,0-0.86,0.42
				c-0.03,0.5-0.05,1.01,0.08,1.49c0.1,0.4,0.11,0.77,0,1.15c-0.32,0.02-0.3-0.14-0.32-0.28c-0.02-0.14-0.05-0.39-0.08-0.39
				c-1.25,0.02-0.37-0.7-0.54-1.04c-0.07-0.14,0.02-0.41-0.09-0.46c-0.22-0.1-0.41,0.11-0.61,0.19c-0.38,0.16-0.63,0.37-0.69,0.69
				c-0.1,0.5-0.56,0.5-1.02,0.49c-0.17,0-0.26-0.18-0.48-0.12c-0.24,0.06-0.56,0.2-0.67-0.1c-0.08-0.24,0.19-0.32,0.44-0.36
				c0.27-0.05,0.19-0.2,0.17-0.34c-0.08-0.48-0.16-0.96-0.26-1.6c-0.52,0.61-1.58,0.45-1.86,1.2c-0.05,0.14-0.26,0.25-0.44,0.18
				c-0.22-0.08-0.2-0.3-0.12-0.44c0.18-0.3,0.42-0.58,0.61-0.87c0.12-0.19,0.17-0.34,0.11-0.61c-0.18-0.84-0.59-0.46-1.03-0.18
				c-0.3-0.12-0.1-0.36-0.2-0.5c-0.12-0.17-0.22-0.46-0.54-0.38c-1.37,0.33-1.9-0.42-2.41-1.15c-0.12-0.18-0.14-0.33-0.46-0.29
				c-0.76,0.1-0.81-0.29-0.65-0.7c0.13-0.33,0.02-0.48-0.35-0.56c-1-0.22-2.06-0.34-2.45-1.3c-0.1-0.24-0.46,0.09-0.72,0.06
				c-0.24-0.03-0.58,0.12-0.64-0.21c-0.06-0.31,0.23-0.34,0.51-0.37c0.91-0.09,1.97-0.14,2.66,0.91c0.28-0.42,0-0.8-0.2-1.01
				c-0.28-0.29-0.59-0.48-0.4-0.9c0.11-0.23-0.22-0.14-0.34-0.18c-0.26-0.09-0.53,0.05-0.78,0.06c-0.25,0.01-0.67,0.11-0.69-0.25
				c-0.02-0.38,0.35-0.39,0.69-0.38c0.34,0.01,0.67,0.18,1.03-0.01c0.32-0.16,0.66-0.33,0.61-0.65c-0.04-0.31-0.32-0.48-0.76-0.44
				c-0.11,0.01-0.22-0.06-0.33-0.09c-0.29-0.06-0.31-0.26-0.34-0.45c0.31-0.47,0.95-0.53,1.46-0.69c1.39-0.43,2.08-1.41,2.98-2.22
				c0.21-0.19,0.11-0.55-0.27-0.71c-1.42-0.62-2.3-1.67-3.37-2.58c-1.05-0.89-2-1.89-3.41-2.49c-0.4-0.17-0.71-0.49-0.98-0.79
				c-0.22-0.24-0.2-0.58,0.08-0.79c0.27-0.21,0.57-0.1,0.88,0.06c0.54,0.28,0.95,0.65,1.35,1.04c0.94,0.92,2.27,1.51,3.23,2.42
				c0.22,0.21,0.89-0.13,0.8,0.16c-0.15,0.51,0.38,0.56,0.56,0.83c0.42,0.65,1.01,0.66,1.74,0.34c0.18,0.1,0.06,0.23,0.06,0.35
				c0.09-0.11,0.01-0.26,0.13-0.37c0.18-0.39,0.81-0.59,0.73-1.13c-0.03-0.2,0.38-0.35,0.72-0.26c0.33,0.08,0.37,0.3,0.28,0.52
				c-0.2,0.5-0.22,0.49,0.45,0.48c0.11,0,0.21,0.07,0.31,0.11c0.26,0.22,0.02,0.39-0.13,0.55c-0.21,0.24-0.46,0.48-0.23,0.78
				c0.23,0.29,0.63,0.22,0.98,0.2c0.14-0.01,0.29,0.03,0.42-0.04c-0.41-0.46-1.12-0.8-0.85-1.51c0.38-0.17,0.73,0.1,1.14,0.04
				c-1-0.29-0.53-1.06-0.84-1.57c-0.16-0.26,0.28-0.42,0.65-0.42c0.45,0,0.78,0.24,0.59,0.52c-0.55,0.83,0.25,1.31,0.58,1.91
				c0.1,0.19,0.28,0.34,0.44,0.53c0.66-0.41,0.31-0.87,0.16-1.32C88.97,660.85,88.7,661.04,88.68,660.95z"/>
			<path class="st21" d="M86.18,661.36c0.22,0.65,0.5,1.26,1.66,1.5c-0.83,0.26-1.5,0.3-2.13,0.23c-0.6-0.07-0.62-0.86-0.02-1.25
				c0.22-0.14,0.35-0.24,0.29-0.46C86.04,661.37,86.11,661.37,86.18,661.36z"/>
			<path class="st21" d="M82.64,674.99c0.02,0.18-2.04,1.64-2.25,1.61c-0.37-0.05-0.29-0.3-0.14-0.41c0.62-0.44,1.27-0.86,1.92-1.27
				C82.32,674.83,82.57,674.74,82.64,674.99z"/>
			<path class="st21" d="M92.96,656.31c0.07,0.4-0.24,0.53-0.68,0.57c-0.49,0.04-0.72-0.19-0.77-0.52c-0.06-0.39,0.3-0.57,0.71-0.58
				C92.62,655.75,92.96,655.9,92.96,656.31z"/>
			<path class="st21" d="M89.23,680.53c-0.05,0.51-0.04,0.82-0.12,1.11c-0.04,0.13-0.2,0.33-0.45,0.28
				c-0.28-0.05-0.2-0.26-0.15-0.42c0.09-0.27,0.32-0.51,0.26-0.82c-0.03-0.15,0.1-0.3,0.28-0.29
				C89.28,680.41,89.23,680.6,89.23,680.53z"/>
			<path class="st21" d="M91.13,683.52c-0.1-0.42-0.21-0.85-0.3-1.27c-0.03-0.14-0.01-0.3,0.23-0.32c0.23-0.02,0.3,0.11,0.3,0.27
				C91.34,682.63,91.49,683.07,91.13,683.52z"/>
			<path class="st21" d="M78.23,667.69c-0.09,0.02-0.17,0.05-0.26,0.06c-0.32,0.01-0.67,0.11-0.94-0.1
				c-0.11-0.08-0.03-0.17,0.05-0.25c0.27-0.3,0.61-0.06,0.91-0.09C78.25,667.36,78.4,667.46,78.23,667.69z"/>
			<path class="st21" d="M107.64,665.4c0.3,0.09,0.72-0.02,0.8,0.31c0.03,0.11-0.21,0.19-0.34,0.15c-0.25-0.07-0.64,0.08-0.74-0.22
				C107.32,665.5,107.43,665.38,107.64,665.4z"/>
			<path class="st21" d="M85.53,678.49c0.2,0.32,0.18,0.58-0.16,0.78c-0.11,0.06-0.28,0.04-0.29-0.04
				C85.04,678.95,85.07,678.67,85.53,678.49z"/>
			<path class="st21" d="M92.31,680.33c0.07,0.16-0.12,0.18-0.23,0.21c-0.23,0.07-0.4-0.02-0.44-0.21c-0.04-0.15,0.03-0.27,0.25-0.3
				C92.19,679.99,92.17,680.22,92.31,680.33z"/>
			<path class="st21" d="M83.48,661.66c0.01,0.09,0.02,0.19,0.02,0.28c0.01,0.16,0.29,0.33-0.07,0.48
				c-0.15,0.06-0.27,0.11-0.38-0.01c-0.2-0.23,0.11-0.32,0.22-0.47c0.05-0.07,0.02-0.17,0.03-0.26
				C83.35,661.67,83.42,661.66,83.48,661.66z"/>
			<path class="st21" d="M108.8,661.24c0.4-0.39,0.73-0.45,1.07-0.49C109.75,661.1,109.43,661.2,108.8,661.24z"/>
			<path class="st21" d="M109.15,662.95c0.33-0.15,0.58-0.25,0.87-0.11c0.04,0.02,0.05,0.17,0.01,0.18
				C109.75,663.18,109.49,663.11,109.15,662.95z"/>
			<path class="st21" d="M90.87,679.32c0.53,0.26,0.33,0.53,0.24,0.78c-0.01,0.03-0.21,0.06-0.22,0.04
				C90.73,679.9,90.88,679.64,90.87,679.32z"/>
			<path class="st21" d="M93.3,682c0.11,0.33,0.12,0.55-0.18,0.7c-0.04,0.02-0.21-0.03-0.21-0.06
				C92.84,682.39,92.99,682.21,93.3,682z"/>
			<path class="st21" d="M96.7,655.38c0.01,0.13-0.03,0.25-0.21,0.26c-0.2,0.02-0.34-0.06-0.33-0.23c0.01-0.13,0.12-0.22,0.27-0.24
				C96.6,655.16,96.69,655.25,96.7,655.38z"/>
			<path class="st21" d="M105.4,667.77c-0.01,0.12,0,0.24-0.15,0.25c-0.19,0.01-0.27-0.1-0.24-0.23c0.02-0.08,0.1-0.2,0.18-0.22
				C105.45,667.52,105.32,667.73,105.4,667.77z"/>
			<path class="st21" d="M78.23,667.69c0.08-0.19-0.13-0.27-0.24-0.38c0.08-0.07,0.17-0.15,0.25-0.22c0.11,0.15,0.23,0.3,0.34,0.45
				C78.47,667.59,78.35,667.64,78.23,667.69z"/>
			<path class="st21" d="M110.9,661.87c0.24,0.14,0.09,0.25-0.09,0.28c-0.24,0.04-0.41-0.02-0.26-0.26
				C110.67,661.84,110.78,661.83,110.9,661.87z"/>
			<path class="st21" d="M88.68,660.95c0.09-0.01,0.18-0.04,0.26-0.03c0.15,0.01,0.41-0.18,0.43,0.01c0.02,0.27-0.29,0.11-0.47,0.13
				C88.83,661.02,88.75,660.98,88.68,660.95z"/>
			<path class="st21" d="M99.01,658.2c0.07-0.06,0.14-0.12,0.2-0.18c0,0.14,0.37,0.26,0.07,0.4
				C99.05,658.53,99.01,658.35,99.01,658.2z"/>
			<path class="st21" d="M106.66,665.75c0.07-0.01,0.13-0.02,0.2-0.03c0.02,0.12,0.25,0.23,0.04,0.36
				c-0.05,0.03-0.16,0.04-0.22,0.02C106.43,666,106.61,665.87,106.66,665.75z"/>
			<path class="st21" d="M110.9,661.87c-0.11,0.01-0.23,0.02-0.34,0.02c-0.09-0.11-0.25-0.27-0.04-0.34
				C110.88,661.43,110.78,661.75,110.9,661.87z"/>
			<path class="st21" d="M92.14,658.45c0.49,0.67,1.07,1.16,2.19,1.16c0.65,0,1.25,0.24,1.17,0.94c-0.03,0.27,0.12,0.55,0.19,0.86
				c-0.42-0.06-0.83-0.18-1.02-0.47c-0.41-0.61-1.05-0.69-1.8-0.55c-0.39,0.07-0.71,0.06-0.97-0.18c-0.42-0.38-0.66-0.89-1.37-1.11
				c0.61,0.02,1.08-0.03,1.32-0.49C91.9,658.5,91.92,658.37,92.14,658.45z"/>
			<path class="st21" d="M101.78,673.59c-0.72-0.25-1.04-0.69-1-1.32c0.81,0.21,0.74,0.86,1.11,1.28
				C101.85,673.57,101.81,673.58,101.78,673.59z"/>
			<path class="st21" d="M88.02,662.21c0.02,0.2-0.12,0.3-0.28,0.34c-0.18,0.04-0.24-0.09-0.24-0.22c0-0.15,0.1-0.29,0.26-0.33
				C87.82,661.98,87.95,662.14,88.02,662.21z"/>
			<path class="st21" d="M101.78,673.59c0.05,0.02,0.09,0,0.1-0.04c0.33-0.02,0.38,0.17,0.46,0.38
				C102.03,673.92,101.86,673.8,101.78,673.59z"/>
			<path class="st21" d="M92.14,658.45c-0.1,0.06-0.19,0.11-0.29,0.16c0.04-0.15-0.19-0.39,0.17-0.43
				C92.17,658.17,92.18,658.33,92.14,658.45z"/>
			<path class="st21" d="M86.03,662.5c-0.14-0.02-0.2-0.1-0.16-0.19c0.03-0.08,0.12-0.18,0.19-0.19c0.2-0.03,0.22,0.1,0.2,0.21
				C86.25,662.43,86.17,662.49,86.03,662.5z"/>
		</g>
		<path class="st0" d="M95.06,673.46l-2.81-0.05l0.02-1.02l1.01,0.02l0.07-4.16c-0.26,0.41-0.63,0.75-1.09,1.01
			c-0.66,0.36-1.41,0.55-2.24,0.55l-0.1,0c-1.15-0.02-2.08-0.35-2.76-0.99c-0.69-0.64-1.03-1.44-1.02-2.37
			c0.02-1.02,0.39-1.83,1.11-2.42c0.69-0.57,1.58-0.86,2.66-0.86l0.1,0c0.9,0.01,1.68,0.22,2.31,0.61l0.01-0.47l1.2,0.02l-0.04,2.24
			l-1.15-0.02l-0.03-0.06c-0.19-0.38-0.5-0.69-0.92-0.9c-0.42-0.22-0.87-0.34-1.34-0.34h-0.06c-0.68,0-1.24,0.2-1.69,0.61
			c-0.45,0.41-0.69,0.95-0.7,1.59c-0.01,0.67,0.22,1.2,0.69,1.64c0.48,0.43,1.05,0.65,1.71,0.66h0.05c0.53,0,1.01-0.14,1.45-0.42
			c0.37-0.23,0.65-0.56,0.85-0.99l0.01-0.35l2.98,0.05c0.79,0.01,1.41,0.06,1.85,0.13c0.44,0.08,0.87,0.25,1.28,0.5
			c0.41,0.26,0.74,0.61,0.99,1.05c0.24,0.44,0.36,0.95,0.35,1.51c-0.01,0.63-0.14,1.18-0.39,1.65c-0.25,0.47-0.57,0.82-0.97,1.05
			c-0.39,0.22-0.86,0.38-1.39,0.46c-0.45,0.07-1,0.1-1.66,0.1C95.4,673.46,95.18,673.46,95.06,673.46z M95.1,672.44
			c0.1,0,0.19,0,0.28,0c0.51,0,0.93-0.03,1.25-0.08c0.37-0.06,0.68-0.17,0.93-0.32c0.25-0.15,0.45-0.38,0.61-0.69
			c0.16-0.31,0.24-0.69,0.25-1.12c0.01-0.51-0.11-0.95-0.36-1.31c-0.24-0.35-0.56-0.59-0.95-0.7c-0.4-0.12-1.04-0.18-1.89-0.2
			l-0.51-0.01l-0.07,4.42L95.1,672.44z"/>
	</g>
</g>
<g class="st20">
	<polygon class="st1" points="612.07,104.44 156.83,104.44 156.83,104.45 0,29.6 0,55.8 156.88,110.72 156.88,110.35 612.07,110.35 
			"/>
	<polygon class="st13" points="156.84,110.35 0,55.45 0,80.71 156.83,116.25 156.83,116.26 612.07,116.26 612.07,110.35 	"/>
</g>
<text transform="matrix(1 0 0 1 166.8645 744.5763)" class="st1 st2 st3">CONTRACT</text>
<g>
	<text transform="matrix(1 0 0 1 273.6152 276.7531)"><tspan x="0" y="0" class="st7 st5 st6">-To act as the primary designer in all new and existing product design while</tspan><tspan x="0" y="12" class="st7 st5 st6"> pushing</tspan><tspan x="30.84" y="12" class="st7 st5 st6 st22"> </tspan><tspan x="34.47" y="12" class="st7 st5 st6">the boundaries of brand identity through thoughtful design using </tspan><tspan x="0" y="24" class="st7 st5 st6"> function and aesthetics.</tspan><tspan x="0" y="36" class="st7 st5 st6">-Maintained company directives to provide ‘on target’ designs for on-time </tspan><tspan x="0" y="48" class="st7 st5 st6"> delivery to our key retailers and sales force. </tspan><tspan x="0" y="60" class="st7 st5 st6">-Held steadfast throughout the design phase while problem solving, resulting</tspan><tspan x="0" y="72" class="st7 st5 st6"> in line consistency of newly developed product. </tspan><tspan x="0" y="84" class="st7 st5 st6">-Assisted in the creation of PLO, specific product briefs and scatter plots. </tspan><tspan x="0" y="96" class="st7 st5 st6">-Consistently engaged with overseas factory partners and supply chains to</tspan><tspan x="0" y="108" class="st7 st5 st6"> ensure prompt sample and final product delivery. </tspan><tspan x="0" y="120" class="st7 st5 st6">-Actively create spec packages and highly detailed sheets for new product.</tspan><tspan x="0" y="132" class="st7 st5 st6">-Actively maintain and organize past design iterations, specs, details etc.</tspan></text>
</g>
<text transform="matrix(1 0 0 1 273.6152 429.8563)" class="st4 st8 st6">Product Designer</text>
<text transform="matrix(1 0 0 1 166.8645 429.7992)" class="st7 st2 st6">Mountainsmith</text>
<text transform="matrix(1 0 0 1 166.8645 441.701)" class="st7 st5 st9">16’-18’</text>
<g>
	<text transform="matrix(1 0 0 1 273.6152 441.5436)"><tspan x="0" y="0" class="st7 st5 st6">-Managed multiple projects on a day to day basis while consistently generating</tspan><tspan x="0" y="12" class="st7 st5 st6"> accurate designs for ‘on brand’ product deliverables.</tspan><tspan x="0" y="24" class="st7 st5 st6">-Engaged in daily workflow of product design and development processes.</tspan><tspan x="0" y="36" class="st7 st5 st6">-Assisted and oversaw the development of Mountainsmiths’ SMU program on </tspan><tspan x="0" y="48" class="st7 st5 st6"> a design/ development level while providing all necessary documentation and </tspan><tspan x="0" y="60" class="st7 st5 st6"> requirements to factories overseas. </tspan><tspan x="0" y="72" class="st7 st5 st6">-Worked as part of a two man design team to help create and develop</tspan><tspan x="0" y="84" class="st7 st5 st6"> new products while managing / maintaining older SKU files and information. </tspan><tspan x="0" y="96" class="st7 st5 st6">-Created supporting product documentation including spec packages, </tspan><tspan x="0" y="108" class="st7 st5 st6"> hang tag information, various packaging applications, SKU/ UPC management.</tspan></text>
</g>
<rect x="185.03" y="265.02" class="st23" width="9.94" height="11.81"/>
<rect x="178.7" y="570.71" class="st23" width="9.94" height="11.81"/>
<rect x="178.7" y="619.38" class="st23" width="9.94" height="11.81"/>
<g>
	<polygon class="st13" points="156.8,28 157.04,118.08 157.13,208.17 157.3,388.34 157.13,568.5 157.04,658.59 156.8,748.67 
		156.56,658.59 156.47,568.5 156.3,388.34 156.47,208.17 156.56,118.08 	"/>
</g>
</svg>
